Coordinates
version=1
nRows=6
nColumns=36
inDegrees=yes

Units are S.I. units (second, meters, Newtons, ...)
If the header above contains a line with 'inDegrees', this indicates whether rotational values are in degrees (yes) or radians (no).

endheader
time	pelvis_tilt	pelvis_list	pelvis_rotation	pelvis_tx	pelvis_ty	pelvis_tz	hip_flexion_r	hip_adduction_r	hip_rotation_r	knee_angle_r	knee_angle_r_beta	ankle_angle_r	subtalar_angle_r	mtp_angle_r	hip_flexion_l	hip_adduction_l	hip_rotation_l	knee_angle_l	knee_angle_l_beta	ankle_angle_l	subtalar_angle_l	mtp_angle_l	lumbar_extension	lumbar_bending	lumbar_rotation	arm_flex_r	arm_add_r	arm_rot_r	elbow_flex_r	pro_sup_r	arm_flex_l	arm_add_l	arm_rot_l	elbow_flex_l	pro_sup_l
      1.46250000	      4.74470365	      0.02342475	      0.63355147	     -0.92512139	      1.28326533	     -0.00207686	     -3.20112577	      0.73525207	      0.12733915	      5.96516610	      0.10411179	     -0.30562050	    -27.68582874	     -7.49999987	     -3.18657018	     -3.34279913	     10.33366015	      8.06726770	      0.14080038	      6.08238941	    -13.90672249	     -7.49999987	    -22.80255919	     -0.38889437	      1.88413746	      4.46558436	     -7.83934220	      5.97693278	     25.70599915	     84.50813920	      2.95061352	     -7.44604920	      6.72874538	     23.87726674	     91.07186763
      1.46666670	      4.70072940	      0.01010208	      0.56010047	     -0.92609787	      1.28207753	     -0.00210320	     -3.21838405	      0.76430759	      0.29381170	      5.84632510	      0.10203762	     -0.14053162	    -27.52755345	     -7.49999987	     -3.26452634	     -3.35129221	     10.32826392	      7.85819150	      0.13715131	      6.08255338	    -13.80591158	     -7.49999987	    -22.72733879	     -0.39009488	      1.88998223	      4.46951678	     -7.91913467	      6.14510208	     25.75733852	     83.04090163	      2.93071837	     -7.49324940	      6.91955943	     23.89555040	     89.59478952
      1.47083330	      4.71871387	     -0.00755076	      0.57884334	     -0.92794777	      1.28152390	     -0.00300408	     -3.26822430	      0.79437513	      0.18985990	      5.73064455	      0.10001862	      0.13668590	    -27.03031388	     -7.49999987	     -3.30138652	     -3.35639877	     10.45857591	      7.73036271	      0.13492028	      6.06206656	    -13.86518984	     -7.49999987	    -22.81267719	     -0.35076017	      1.86823113	      4.61096615	     -8.11611742	      7.34428063	     25.77500790	     80.29834921	      3.10588700	     -7.67189310	      8.45927779	     23.84358890	     86.29016661
      1.47500000	      4.32813176	     -0.02309047	      0.53395103	     -0.92745797	      1.27862153	     -0.00261029	     -2.76956221	      0.80557684	      0.12234229	      5.79671696	      0.10117180	      0.33737529	    -26.70382922	     -7.49999987	     -2.80078824	     -3.35428989	     10.38259605	      7.80069432	      0.13614780	      6.24244614	    -13.67202359	     -7.49999987	    -22.34063524	     -0.33771424	      1.91535155	      4.60013682	     -8.12834393	      7.18111008	     25.68345372	     78.76375348	      3.10793011	     -7.59392111	      8.30239362	     23.74592283	     84.54991653
      1.47916670	      4.33004000	     -0.01974557	      0.50469672	     -0.92676166	      1.27861349	     -0.00227732	     -2.67140615	      0.79590689	      0.21416632	      6.00030585	      0.10472509	      0.17472319	    -27.11904666	     -7.49999987	     -2.78930324	     -3.33142418	     10.44885820	      7.77371060	      0.13567685	      6.22727766	    -13.91054455	     -7.49999987	    -22.45892627	     -0.33962427	      1.96699625	      4.74330738	     -8.20529876	      7.21105677	     25.67221774	     78.16319436	      3.25478157	     -7.59690962	      8.35464664	     23.74459119	     83.88807542
      1.48333330	      4.43690134	      0.00272170	      0.43703013	     -0.92583388	      1.27901671	     -0.00284756	     -2.77040418	      0.74129138	      0.09473836	      6.11576803	      0.10674029	      0.60445623	    -26.70753665	     -7.49999987	     -2.94389532	     -3.28536593	     10.42635020	      7.71736014	      0.13469334	      6.35043621	    -13.85201023	     -7.49999987	    -22.64365591	     -0.38417111	      1.99043506	      4.63997756	     -8.26704201	      6.06480221	     26.13454730	     84.27572174	      3.09644508	     -7.61603006	      6.77811088	     24.26939616	     91.07733874
